# xmcd CD database file
#
# Track frame offsets:
#	150
#	18570
#	34637
#	52315
#	69062
#	85237
#	99822
#	119387
#	144025
#	157492
#
# Disc length: 2235 seconds
#
# Revision: 0
# Processed by: cddbd v1.5PL3 Copyright (c) Steve Scherf et al.
# Submitted via: CDex 1.50
#
DISCID=7d08b90a
DTITLE=鈴木茂 - TELESCOPE
DYEAR=1978
DGENRE=JPop
TTITLE0=Tuesday Queen
TTITLE1=イメージ・チェンジ
TTITLE2=ラハイナ・ガール
TTITLE3=ストリップ・ティーズ
TTITLE4=マドモアゼル
TTITLE5=スパニッシュフライ（媚薬）
TTITLE6=ハヴァナ・シガレット
TTITLE7=10セントの魂
TTITLE8=スウィート・インスピレイション
TTITLE9=テレスコープ
EXTD=YEAR: 1978
EXTT0=
EXTT1=
EXTT2=
EXTT3=
EXTT4=
EXTT5=
EXTT6=
EXTT7=
EXTT8=
EXTT9=
PLAYORDER=
